<svg xmlns="http://www.w3.org/2000/svg" width="125" height="90" viewBox="0 0 124 48" fill="none">
    <g clip-path="url(#clip0_9_255)">
        <path fill-rule="evenodd" clip-rule="evenodd"
              d="M62.1579 25.5495H68.0195L65.0992 13.5111L62.1579 25.5495ZM60.1479 7.71576H70.1243L79.6955 39.8007H71.4344L69.577 32.0455H60.7687L58.8903 39.7744L50.7502 39.8007C50.7502 39.8007 59.9742 7.71576 60.1479 7.71576Z"
              fill="#F56800"/>
        <path d="M60.1479 7.71576H70.1243L79.6955 39.8007H71.4344L69.577 32.0455H60.7687L58.8903 39.7744L50.7502 39.8007C50.7502 39.8007 59.9742 7.71576 60.1479 7.71576Z"
              stroke="#F56800" stroke-width="0.25" stroke-miterlimit="3.8637"/>
        <path fill-rule="evenodd" clip-rule="evenodd"
              d="M16.7115 7.71576C22.9415 7.97918 27.9087 13.1159 27.6824 19.3749C27.4562 25.5285 22.71 30.4597 16.5484 30.6073H11.897V39.7691H4.22525V7.7421L16.7115 7.71576ZM11.9443 23.5686V14.6965H16.2959C17.9796 14.6965 20.1949 16.8407 20.2054 19.1536C20.2159 21.4507 18.0954 23.5633 16.2959 23.5633H11.9443V23.5686Z"
              fill="#F56800"/>
        <path d="M16.7115 7.71576C22.9415 7.97918 27.9087 13.1159 27.6824 19.3749C27.4562 25.5284 22.71 30.4597 16.5484 30.6072H11.897V39.7691H4.22525V7.7421L16.7115 7.71576Z"
              stroke="#F56800" stroke-width="0.25" stroke-miterlimit="3.8637"/>
        <path d="M49.0507 7.69995V14.5858H39.9688V21.0766H48.5034V27.9625H39.9635L39.953 39.7797H32.1129V7.69995H49.0507Z"
              fill="#F56800" stroke="#DA2032" stroke-width="0.25" stroke-miterlimit="3.8637"/>
        <path d="M100.653 7.77899V14.6649H91.5714V21.1556H100.106V28.0415H91.4925V39.885H83.6366V7.77899H100.653Z"
              fill="#F56800" stroke="#DA2032" stroke-width="0.25" stroke-miterlimit="3.8637"/>
        <path d="M123.921 7.71048V14.5964H114.839V21.0819H123.374V27.9677H114.76V39.8165H106.904V7.71048H123.921Z"
              fill="#F56800" stroke="#DA1F3D" stroke-width="0.25" stroke-miterlimit="3.8637"/>
    </g>
    <defs>
        <clipPath id="clip0_9_255">
            <rect width="124" height="47" fill="#F56800" transform="translate(0 0.29248)"/>
        </clipPath>
    </defs>
</svg>