<svg xmlns="http://www.w3.org/2000/svg" version="1.1" width="200" height="200"
     viewBox="0 -130 350 330">
    <g>
        <path style="opacity:1" fill="#F56800"
              stroke="122"
              stroke-width="122"
              d="M 37.5,8.5 C 120.335,8.16734 203.002,8.50068 285.5,9.5C 284.89,10.391 284.557,11.391 284.5,12.5C 282.896,13.287 282.229,14.6203 282.5,16.5C 202.833,16.3333 123.166,16.5 43.5,17C 41.714,17.7845 40.214,18.9512 39,20.5C 35.3333,26.5 31.6667,32.5 28,38.5C 26.2787,41.3154 25.6121,44.3154 26,47.5C 31.082,48.637 36.2487,48.8037 41.5,48C 43.3031,47.3632 44.6364,46.1965 45.5,44.5C 49.1073,43.5108 52.774,43.1774 56.5,43.5C 54.9023,48.9438 51.569,53.1104 46.5,56C 35.5503,57.5457 24.5503,57.8791 13.5,57C 12.6667,56.1667 11.8333,55.3333 11,54.5C 10.5417,50.9513 11.2084,47.618 13,44.5C 18.7475,34.0029 24.7475,23.6696 31,13.5C 32.7581,11.2345 34.9248,9.56784 37.5,8.5 Z"/>
    </g>
    <g>
        <path style="opacity:1" fill="#F56800"
              stroke="122"
              stroke-width="122"
              d="M 80.5,22.5 C 91.505,22.3335 102.505,22.5002 113.5,23C 114.416,23.3742 115.25,23.8742 116,24.5C 116.667,26.8333 116.667,29.1667 116,31.5C 113.14,37.0813 110.474,42.7479 108,48.5C 105.402,52.287 101.902,54.787 97.5,56C 86.1667,56.6667 74.8333,56.6667 63.5,56C 61.5218,53.5027 61.0218,50.6693 62,47.5C 64.8598,41.9187 67.5265,36.2521 70,30.5C 72.8552,26.7893 76.3552,24.1226 80.5,22.5 Z"/>
    </g>
    <g>
        <path style="opacity:1" fill="#F56800"
              stroke="122"
              stroke-width="122"
              d="M 165.5,22.5 C 169.371,22.185 173.038,22.5184 176.5,23.5C 171.18,34.1401 165.847,44.8068 160.5,55.5C 154.863,56.6632 149.196,56.8299 143.5,56C 141.41,48.3956 138.91,40.8956 136,33.5C 132.227,40.7119 128.727,48.0452 125.5,55.5C 121.833,56.8333 118.167,56.8333 114.5,55.5C 119.582,44.7877 124.582,34.121 129.5,23.5C 135.798,22.5037 142.132,22.1703 148.5,22.5C 150.285,29.8611 152.285,37.1944 154.5,44.5C 158.178,37.1447 161.844,29.8113 165.5,22.5 Z"/>
    </g>
    <g>
        <path style="opacity:1" fill="#F56800"
              stroke="122"
              stroke-width="122"
              d="M 192.5,21.5 C 200.507,21.3336 208.507,21.5003 216.5,22C 224.227,23.2219 225.56,26.8886 220.5,33C 217.183,33.4983 213.85,33.665 210.5,33.5C 210.5,32.5 210.5,31.5 210.5,30.5C 204.824,30.3339 199.157,30.5006 193.5,31C 192.663,32.0113 192.33,33.1779 192.5,34.5C 200.585,34.0989 208.585,34.5989 216.5,36C 217.804,36.804 218.471,37.9707 218.5,39.5C 216.634,48.531 211.3,54.031 202.5,56C 193.833,56.6667 185.167,56.6667 176.5,56C 171.492,52.9147 171.158,49.2481 175.5,45C 178.482,44.502 181.482,44.3354 184.5,44.5C 184.33,45.8221 184.663,46.9887 185.5,48C 190.833,48.6667 196.167,48.6667 201.5,48C 203.116,47.3848 204.449,46.3848 205.5,45C 198.668,43.7035 191.668,43.0369 184.5,43C 182.671,42.7265 181.171,41.8932 180,40.5C 179.649,31.2049 183.815,24.8715 192.5,21.5 Z"/>
    </g>
    <g>
        <path style="opacity:1" fill="#F56800"
              stroke="122"
              stroke-width="122"
              d="M 242.5,33.5 C 241.957,33.56 241.624,33.8933 241.5,34.5C 249.323,35.1667 256.99,35.8334 264.5,36.5C 263.841,38.1379 263.174,39.8045 262.5,41.5C 254.167,42.1667 245.833,42.8333 237.5,43.5C 236.754,44.7362 236.421,46.0695 236.5,47.5C 244.86,47.1688 253.193,47.5021 261.5,48.5C 260.441,50.5336 259.441,52.5336 258.5,54.5C 246.069,55.8203 233.735,55.8203 221.5,54.5C 225.744,43.5092 230.411,32.6759 235.5,22C 247.847,21.1674 260.18,21.3341 272.5,22.5C 271.305,24.7513 270.305,27.0846 269.5,29.5C 260.852,30.3319 252.186,30.8319 243.5,31C 242.748,31.6708 242.414,32.5041 242.5,33.5 Z"/>
    </g>
    <g>
        <path style="opacity:" fill="#F56800"
              stroke="122"
              stroke-width="122"
              d="M 287.5,22.5 C 287.054,30.173 286.888,37.8396 287,45.5C 293.031,37.9759 299.198,30.6426 305.5,23.5C 309.064,22.5773 312.731,22.244 316.5,22.5C 316.5,25.8333 316.5,29.1667 316.5,32.5C 316.5,34.8333 316.5,37.1667 316.5,39.5C 315.371,41.6282 315.204,43.9615 316,46.5C 316.717,45.9558 317.217,45.2891 317.5,44.5C 323.804,37.1919 330.138,29.8586 336.5,22.5C 340.371,22.185 344.038,22.5184 347.5,23.5C 337.658,33.8462 328.324,44.6796 319.5,56C 314.511,56.4993 309.511,56.6659 304.5,56.5C 305.616,49.8622 306.116,43.1955 306,36.5C 300.833,43 295.667,49.5 290.5,56C 285.177,56.4994 279.844,56.666 274.5,56.5C 274.557,50.1487 274.89,43.8154 275.5,37.5C 276.487,32.6946 276.821,27.6946 276.5,22.5C 280.167,22.5 283.833,22.5 287.5,22.5 Z"/>
    </g>
    <g>
        <path style="opacity:1" fill="#000000"
              d="M 82.5,31.5 C 89.175,31.3337 95.8417,31.5004 102.5,32C 102.967,38.0784 100.634,43.0784 95.5,47C 89.8809,48.299 84.2142,48.6323 78.5,48C 76.2206,47.594 74.8873,46.2607 74.5,44C 76.0767,38.9836 78.7434,34.8169 82.5,31.5 Z"/>
    </g>
</svg>